<?xml version="1.0" standalone="no"?>
<!DOCTYPE svg PUBLIC "-//W3C//DTD SVG 20010904//EN"
 "http://www.w3.org/TR/2001/REC-SVG-20010904/DTD/svg10.dtd">
<svg version="1.0" xmlns="http://www.w3.org/2000/svg"
 width="32.000000pt" height="32.000000pt" viewBox="0 0 32.000000 32.000000"
 preserveAspectRatio="xMidYMid meet">

<g transform="translate(0.000000,32.000000) scale(0.100000,-0.100000)"
fill="#000000" stroke="none">
<path d="M12 308 c-17 -17 -17 -279 0 -296 17 -17 279 -17 296 0 17 17 17 279
0 296 -17 17 -279 17 -296 0z m146 -86 c2 -13 -4 -32 -13 -42 -11 -12 -13 -20
-6 -25 36 -21 -18 -85 -71 -85 -26 0 -29 3 -25 23 3 12 11 53 18 90 l11 68 42
-3 c34 -3 42 -7 44 -26z m68 -9 l8 -38 10 38 c5 20 15 37 23 37 7 0 13 -1 13
-2 0 -30 -34 -164 -43 -170 -20 -13 -27 -9 -27 15 0 12 -5 29 -10 37 -8 12
-10 11 -10 -7 0 -32 -10 -53 -26 -53 -17 0 -17 0 -4 76 17 99 19 104 39 104
14 0 21 -10 27 -37z"/>
<path d="M105 209 c-10 -15 3 -25 16 -12 7 7 7 13 1 17 -6 3 -14 1 -17 -5z"/>
<path d="M90 140 c0 -13 5 -20 13 -17 6 2 12 10 12 17 0 7 -6 15 -12 18 -8 2
-13 -5 -13 -18z"/>
</g>
</svg>
